<mxfile host="www.draw.io" modified="2019-10-21T22:40:08.406Z" agent="Mozilla/5.0 (Macintosh; Intel Mac OS X 10_14_5) AppleWebKit/537.36 (KHTML, like Gecko) Chrome/77.0.3865.120 Safari/537.36" etag="SDYdcMtktkzSE1Bdk3RX" version="12.1.3" type="github" pages="1">
  <diagram id="tydk_CIgYVxiQbmg7vE3" name="Page-1">
    <mxGraphModel dx="638" dy="1148" grid="1" gridSize="10" guides="1" tooltips="1" connect="1" arrows="1" fold="1" page="1" pageScale="1" pageWidth="850" pageHeight="1100" math="0" shadow="0">
      <root>
        <mxCell id="0"/>
        <mxCell id="1" parent="0"/>
        <mxCell id="VdBGwhDN53d5xWTjVT2z-20" value="" style="rounded=1;whiteSpace=wrap;html=1;fillColor=#E0E4CC;strokeColor=none;fontFamily=Open Sans;" vertex="1" parent="1">
          <mxGeometry x="170" width="250" height="120" as="geometry"/>
        </mxCell>
        <mxCell id="VdBGwhDN53d5xWTjVT2z-13" value="" style="rounded=1;whiteSpace=wrap;html=1;fillColor=#E0E4CC;strokeColor=none;fontFamily=Open Sans;" vertex="1" parent="1">
          <mxGeometry width="140" height="120" as="geometry"/>
        </mxCell>
        <mxCell id="VdBGwhDN53d5xWTjVT2z-1" value="" style="rounded=1;whiteSpace=wrap;html=1;fillColor=#E0E4CC;strokeColor=none;fontFamily=Open Sans;" vertex="1" parent="1">
          <mxGeometry y="150" width="310" height="140" as="geometry"/>
        </mxCell>
        <mxCell id="VdBGwhDN53d5xWTjVT2z-5" value="GetColorValue" style="shape=parallelogram;perimeter=parallelogramPerimeter;whiteSpace=wrap;html=1;fillColor=#69D2E7;strokeColor=none;rounded=1;fontFamily=Open Sans;" vertex="1" parent="1">
          <mxGeometry x="10" y="190" width="120" height="40" as="geometry"/>
        </mxCell>
        <mxCell id="VdBGwhDN53d5xWTjVT2z-6" value="CallBack" style="shape=parallelogram;perimeter=parallelogramPerimeter;whiteSpace=wrap;html=1;fillColor=#69D2E7;strokeColor=none;gradientColor=none;shadow=0;rounded=1;fontFamily=Open Sans;" vertex="1" parent="1">
          <mxGeometry x="180" y="190" width="120" height="40" as="geometry"/>
        </mxCell>
        <mxCell id="VdBGwhDN53d5xWTjVT2z-8" value="GetGroupNColor" style="shape=parallelogram;perimeter=parallelogramPerimeter;whiteSpace=wrap;html=1;fillColor=#69D2E7;strokeColor=none;rounded=1;comic=0;fontFamily=Open Sans;" vertex="1" parent="1">
          <mxGeometry x="5" y="60" width="130" height="40" as="geometry"/>
        </mxCell>
        <mxCell id="VdBGwhDN53d5xWTjVT2z-9" value="ChangeColor" style="shape=parallelogram;perimeter=parallelogramPerimeter;whiteSpace=wrap;html=1;fillColor=#69D2E7;strokeColor=none;rounded=1;comic=0;shadow=0;fontFamily=Open Sans;" vertex="1" parent="1">
          <mxGeometry x="180" y="60" width="125" height="40" as="geometry"/>
        </mxCell>
        <mxCell id="VdBGwhDN53d5xWTjVT2z-10" value="Delegate" style="endArrow=classic;html=1;exitX=0.5;exitY=1;exitDx=0;exitDy=0;entryX=0.5;entryY=0;entryDx=0;entryDy=0;fontFamily=Open Sans;" edge="1" parent="1" source="VdBGwhDN53d5xWTjVT2z-8" target="VdBGwhDN53d5xWTjVT2z-5">
          <mxGeometry x="-0.3333" width="50" height="50" relative="1" as="geometry">
            <mxPoint y="360" as="sourcePoint"/>
            <mxPoint x="50" y="310" as="targetPoint"/>
            <mxPoint as="offset"/>
          </mxGeometry>
        </mxCell>
        <mxCell id="VdBGwhDN53d5xWTjVT2z-11" value="" style="endArrow=classic;html=1;exitX=0.5;exitY=1;exitDx=0;exitDy=0;entryX=0.5;entryY=0;entryDx=0;entryDy=0;fontFamily=Open Sans;" edge="1" parent="1" source="VdBGwhDN53d5xWTjVT2z-9" target="VdBGwhDN53d5xWTjVT2z-6">
          <mxGeometry width="50" height="50" relative="1" as="geometry">
            <mxPoint y="360" as="sourcePoint"/>
            <mxPoint x="50" y="310" as="targetPoint"/>
          </mxGeometry>
        </mxCell>
        <mxCell id="VdBGwhDN53d5xWTjVT2z-28" value="Delegate" style="text;html=1;resizable=0;points=[];align=center;verticalAlign=middle;labelBackgroundColor=#ffffff;fontSize=11;fontFamily=Open Sans;" vertex="1" connectable="0" parent="VdBGwhDN53d5xWTjVT2z-11">
          <mxGeometry x="-0.2219" y="-1" relative="1" as="geometry">
            <mxPoint as="offset"/>
          </mxGeometry>
        </mxCell>
        <mxCell id="VdBGwhDN53d5xWTjVT2z-12" value="Watch" style="shape=parallelogram;perimeter=parallelogramPerimeter;whiteSpace=wrap;html=1;fillColor=#69D2E7;strokeColor=none;gradientColor=none;shadow=0;rounded=1;fontFamily=Open Sans;" vertex="1" parent="1">
          <mxGeometry x="95" y="240" width="120" height="40" as="geometry"/>
        </mxCell>
        <mxCell id="VdBGwhDN53d5xWTjVT2z-14" value="ColorWatcher Instance" style="text;html=1;strokeColor=none;fillColor=none;align=center;verticalAlign=middle;whiteSpace=wrap;rounded=0;shadow=0;comic=0;fontFamily=Open Sans;fontSize=15;fontStyle=1" vertex="1" parent="1">
          <mxGeometry x="145" y="160" width="40" height="20" as="geometry"/>
        </mxCell>
        <mxCell id="VdBGwhDN53d5xWTjVT2z-17" style="edgeStyle=orthogonalEdgeStyle;rounded=0;orthogonalLoop=1;jettySize=auto;html=1;exitX=0.5;exitY=1;exitDx=0;exitDy=0;fontFamily=Open Sans;" edge="1" parent="1" source="VdBGwhDN53d5xWTjVT2z-5" target="VdBGwhDN53d5xWTjVT2z-5">
          <mxGeometry relative="1" as="geometry"/>
        </mxCell>
        <mxCell id="VdBGwhDN53d5xWTjVT2z-18" value="ColorBind" style="text;html=1;strokeColor=none;fillColor=none;align=center;verticalAlign=middle;whiteSpace=wrap;rounded=0;shadow=0;comic=0;fontFamily=Open Sans;fontSize=15;fontStyle=1" vertex="1" parent="1">
          <mxGeometry x="50" y="10" width="40" height="20" as="geometry"/>
        </mxCell>
        <mxCell id="VdBGwhDN53d5xWTjVT2z-21" value="MiniController" style="text;html=1;strokeColor=none;fillColor=none;align=center;verticalAlign=middle;whiteSpace=wrap;rounded=0;shadow=0;comic=0;fontFamily=Open Sans;fontSize=15;fontStyle=1" vertex="1" parent="1">
          <mxGeometry x="275" y="10" width="40" height="20" as="geometry"/>
        </mxCell>
        <mxCell id="VdBGwhDN53d5xWTjVT2z-24" style="edgeStyle=orthogonalEdgeStyle;rounded=0;orthogonalLoop=1;jettySize=auto;html=1;exitX=0.5;exitY=1;exitDx=0;exitDy=0;entryX=0.5;entryY=1;entryDx=0;entryDy=0;fontFamily=Open Sans;fontSize=15;" edge="1" parent="1" source="VdBGwhDN53d5xWTjVT2z-23" target="VdBGwhDN53d5xWTjVT2z-12">
          <mxGeometry relative="1" as="geometry"/>
        </mxCell>
        <mxCell id="VdBGwhDN53d5xWTjVT2z-27" value="Execute" style="text;html=1;resizable=0;points=[];align=center;verticalAlign=middle;labelBackgroundColor=#ffffff;fontSize=11;fontFamily=Open Sans;" vertex="1" connectable="0" parent="VdBGwhDN53d5xWTjVT2z-24">
          <mxGeometry x="-0.5366" y="-1" relative="1" as="geometry">
            <mxPoint as="offset"/>
          </mxGeometry>
        </mxCell>
        <mxCell id="VdBGwhDN53d5xWTjVT2z-23" value="Update" style="shape=parallelogram;perimeter=parallelogramPerimeter;whiteSpace=wrap;html=1;fillColor=#69D2E7;strokeColor=none;rounded=1;comic=0;shadow=0;fontFamily=Open Sans;" vertex="1" parent="1">
          <mxGeometry x="300" y="60" width="115" height="40" as="geometry"/>
        </mxCell>
      </root>
    </mxGraphModel>
  </diagram>
</mxfile>
